<svg xmlns="http://www.w3.org/2000/svg" width="800" height="480" viewBox="0 0 800 480">
  <defs>
    <linearGradient id="g" x1="0" y1="0" x2="1" y2="1">
      <stop offset="0%" stop-color="#7AA2FF"/>
      <stop offset="100%" stop-color="#7EF0C1"/>
    </linearGradient>
  </defs>
  <rect width="800" height="480" fill="#0b0f17"/>
  <g opacity="0.35">
    <circle cx="100" cy="420" r="90" fill="url(#g)"/>
    <circle cx="740" cy="60" r="70" fill="url(#g)"/>
    <circle cx="400" cy="240" r="160" fill="url(#g)"/>
  </g>
  <g fill="none" stroke="#9cc8ff" stroke-opacity=".6">
    <path d="M40 350 C 200 220, 600 220, 760 350" stroke-width="3"/>
    <path d="M60 390 C 240 260, 560 260, 740 390" stroke-width="2" opacity=".6"/>
  </g>
  <g font-family="Cairo, sans-serif" text-anchor="middle" fill="#eef2f7">
    <text x="400" y="108" font-size="44" style="font-weight:700">مقام راست</text>
    <text x="400" y="150" font-size="18" fill="#a9b4c0">ميزان الاستقرار والوضوح اللّحني</text>
  </g>
  <g stroke="#7EF0C1" stroke-width="4" opacity=".7">
    <line x1="160" y1="300" x2="640" y2="300"/>
    <rect x="200" y="270" width="16" height="60" fill="#7EF0C1"/>
    <rect x="280" y="260" width="16" height="80" fill="#7EF0C1"/>
    <rect x="360" y="250" width="16" height="100" fill="#7EF0C1"/>
    <rect x="440" y="260" width="16" height="80" fill="#7EF0C1"/>
    <rect x="520" y="270" width="16" height="60" fill="#7EF0C1"/>
  </g>
</svg>

